<?xml version="1.0" encoding="UTF-8"?>
<svg width="48px" height="48px" version="1.1" viewBox="0 0 48 48" xmlns="http://www.w3.org/2000/svg">
 <g fill="#f9f9f9">
  <path d="m45 16.2-5 2.75-5 4.75v16.3h7c1.657 0 3-1.343 3-3v-20.8z"/>
  <path d="M3,16.2l3.614,1.71L13,23.7V40H6c-1.657,0-3-1.343-3-3V16.2z"/>
  <polygon points="35 11.2 24 19.45 13 11.2 12 17 13 23.7 24 31.95 35 23.7 36 17"/>
  <path d="M3,12.298V16.2l10,7.5V11.2L9.876,8.859C9.132,8.301,8.228,8,7.298,8h0C4.924,8,3,9.924,3,12.298z"/>
  <path d="M45,12.298V16.2l-10,7.5V11.2l3.124-2.341C38.868,8.301,39.772,8,40.702,8h0 C43.076,8,45,9.924,45,12.298z"/>
 </g>
</svg>
