<?xml version="1.0" standalone="no"?>
<!DOCTYPE svg PUBLIC "-//W3C//DTD SVG 20010904//EN"
 "http://www.w3.org/TR/2001/REC-SVG-20010904/DTD/svg10.dtd">
<svg version="1.0" xmlns="http://www.w3.org/2000/svg"
 width="512.000000pt" height="512.000000pt" viewBox="0 0 512.000000 512.000000"
 preserveAspectRatio="xMidYMid meet">
<metadata>
Created by potrace 1.14, written by Peter Selinger 2001-2017
</metadata>
<g transform="translate(0.000000,512.000000) scale(0.100000,-0.100000)"
fill="#000000" stroke="none">
<path d="M310 4170 c0 -6 20 -126 45 -268 174 -985 364 -1869 566 -2637 40
-148 74 -280 77 -293 l4 -22 281 2 280 3 39 130 c71 238 185 664 318 1190 72
286 136 538 142 560 10 38 14 28 89 -270 172 -674 313 -1197 415 -1532 l25
-83 278 0 278 0 21 78 c12 42 44 164 71 270 l49 192 -43 88 c-92 183 -133 351
-141 567 -11 300 61 566 219 803 96 143 208 258 344 352 19 13 28 46 62 230
59 319 111 614 111 633 0 16 -26 17 -314 17 l-313 0 -7 -52 c-8 -62 -64 -434
-142 -943 -62 -403 -214 -1238 -228 -1252 -11 -12 -302 1126 -453 1777 l-29
125 -259 0 -259 0 -8 -30 c-4 -16 -40 -172 -79 -345 -140 -621 -370 -1520
-390 -1520 -3 0 -9 15 -12 33 -3 17 -24 118 -46 222 -69 322 -230 1258 -302
1758 l-33 227 -328 0 c-215 0 -328 -3 -328 -10z"/>
<path d="M4055 3246 c-123 -21 -202 -44 -293 -87 -380 -177 -580 -578 -532
-1068 38 -394 198 -650 494 -786 288 -134 770 -124 1099 22 31 14 57 28 57 32
0 9 -110 322 -118 336 -5 10 -26 5 -87 -20 -115 -49 -242 -70 -410 -70 -116 0
-152 4 -210 22 -175 55 -289 178 -341 368 -24 90 -30 339 -10 435 35 169 143
319 273 381 173 83 423 74 666 -22 43 -17 80 -29 83 -27 13 13 123 341 118
350 -18 29 -202 94 -349 123 -111 22 -340 28 -440 11z"/>
</g>
</svg>
